<?xml version="1.0" encoding="UTF-8"?>
<!DOCTYPE svg PUBLIC "-//W3C//DTD SVG 1.1//EN" "http://www.w3.org/Graphics/SVG/1.1/DTD/svg11.dtd">
<!-- Creator: CorelDRAW 2021 (64-Bit) -->
<svg xmlns="http://www.w3.org/2000/svg" xml:space="preserve" width="127mm" height="127mm" version="1.1" style="shape-rendering:geometricPrecision; text-rendering:geometricPrecision; image-rendering:optimizeQuality; fill-rule:evenodd; clip-rule:evenodd"
viewBox="0 0 6026.28 6026.28"
 xmlns:xlink="http://www.w3.org/1999/xlink"
 xmlns:xodm="http://www.corel.com/coreldraw/odm/2003">
 <defs>
  <style type="text/css">
   <![CDATA[
    .fil0 {fill:white}
   ]]>
  </style>
 </defs>
 <g id="Layer_x0020_1">
  <metadata id="CorelCorpID_0Corel-Layer"/>
  <path class="fil0" d="M-0 2976.78c0.9,40.83 6.46,64.49 34.79,119.27 60.08,116.2 171.42,176.03 318.31,176.03l400.18 0 0 2401.1c0,188.91 185.41,353.1 341.33,353.1l1129.93 0c59.84,0 123.39,-58.08 145.33,-101.84 37.03,-73.87 19.45,-627.74 19.45,-733.83 0,-337.41 0,-674.82 0,-1012.23 25.49,-17.08 39.18,-35.31 82.38,-35.31l1082.85 0c43.21,0 56.89,18.24 82.39,35.31l-0 1506.57c0,78.08 -10.02,172.22 15.75,231.42 21.03,48.3 85.74,109.91 149.03,109.91l1129.93 0c163.41,0 341.33,-177.92 341.33,-341.33l0 -2412.87c224.46,0 510.08,35.96 639.56,-78.4 27.7,-24.46 18.26,-13.74 41.49,-40.91 13.85,-16.2 23.66,-28.45 34.91,-47.47 32.26,-54.52 36.8,-92.78 37.32,-144.07l0 -38.75 0 -3.5c0,-110.04 -74.46,-174.55 -132.41,-232.46 -309.79,-309.55 -632.21,-596.87 -941.61,-906.3 -232.41,-232.44 -525.8,-490.12 -753.28,-717.97 -127.15,-127.36 -249.52,-237.75 -376.64,-364.87 -30.7,-30.7 -56.52,-60.15 -88.36,-88.19 -120.64,-106.24 -217.49,-216.54 -288.81,-276.16l-187.79 -177.08c-107.66,-107.67 -139.46,-155.95 -267.77,-155.95 -109.09,0 -313.97,263.78 -400.18,329.56 -68.5,52.28 -122.74,116.83 -185.38,179.49 -225.94,226.01 -533.56,498.19 -759.16,723.86l-1506.57 1447.72c-59.57,59.55 -138.3,125.27 -138.3,238.34l0 57.8z"/>
 </g>
</svg>
