<?xml version="1.0" encoding="UTF-8"?>
<!DOCTYPE svg PUBLIC "-//W3C//DTD SVG 1.1//EN" "http://www.w3.org/Graphics/SVG/1.1/DTD/svg11.dtd">
<!-- Creator: CorelDRAW 2021 (64-Bit) -->
<svg xmlns="http://www.w3.org/2000/svg" xml:space="preserve" width="113.606mm" height="127mm" version="1.1" style="shape-rendering:geometricPrecision; text-rendering:geometricPrecision; image-rendering:optimizeQuality; fill-rule:evenodd; clip-rule:evenodd"
viewBox="0 0 2267.09 2534.39"
 xmlns:xlink="http://www.w3.org/1999/xlink"
 xmlns:xodm="http://www.corel.com/coreldraw/odm/2003">
 <defs>
  <style type="text/css">
   <![CDATA[
    .fil0 {fill:white}
   ]]>
  </style>
 </defs>
 <g id="Layer_x0020_1">
  <metadata id="CorelCorpID_0Corel-Layer"/>
  <g id="_2495768492928">
   <path class="fil0" d="M854.94 2534.39l-34.13 0c-43.47,-2.81 -88.85,-16.42 -133.76,-43.56 -37.41,-22.6 -75.12,-44.93 -112.86,-65.34l-338.71 -195.89c-107.09,-63.34 -235.49,-112.26 -235.49,-294.15l0 -1663.19c0,-149.8 123.64,-272.25 247.5,-272.25l1291.94 0c126.63,0 247.5,124.76 247.5,272.25l0 336.6c0,104.24 -126.82,121.8 -158.05,34.3 -10.94,-30.65 -5.36,-296.46 -5.3,-341.2 0.08,-66.16 -5.04,-125.53 -91.67,-140.98 -46.53,-8.3 -1045.52,-2.57 -1145.83,-2.57 10.66,14.56 279.67,165.96 305.2,179.9l254.15 146.8c86.67,46.8 158.4,118.59 158.4,242.55l0 1237.5 425.7 0c29.72,0 52.72,-16.29 68.72,-35.23l22.49 -41.86c10.92,-41.28 -2.02,-264.45 2.97,-333.63 8.66,-120.05 163.22,-103.21 163.22,-0.13l0 301.95c0,150.75 -126.49,272.25 -262.35,272.25l-420.75 0 0 148.5c0,131.59 -110.83,248.43 -248.9,257.4z"/>
   <path class="fil0" d="M1846.34 801.9c0,70.41 102.51,121.86 143.55,183.15 -51.03,0 -725.09,-7.83 -756.82,5.47 -59.79,25.08 -62,116.19 0.68,146.76 26.5,12.92 279.62,6.16 320.54,6.16 145.2,0 290.4,0 435.6,0 -40.89,61.06 -198.98,145.31 -122.61,231.51 13.69,15.45 38.31,25.89 63.21,25.89 45.18,0 73.15,-40.97 97.76,-65.59 29.26,-29.26 54.89,-54.89 84.15,-84.15 32.9,-32.9 154.69,-139.32 154.69,-181.91 0,-52.06 -35.88,-73 -63.11,-100.24l-168.3 -168.3c-55.06,-55.06 -55.02,-73.01 -120.04,-73.01 -40.52,0 -69.3,51.78 -69.3,74.25z"/>
  </g>
 </g>
</svg>
