<?xml version="1.0" encoding="UTF-8"?>
<!DOCTYPE svg PUBLIC "-//W3C//DTD SVG 1.1//EN" "http://www.w3.org/Graphics/SVG/1.1/DTD/svg11.dtd">
<!-- Creator: CorelDRAW 2021 (64-Bit) -->
<svg xmlns="http://www.w3.org/2000/svg" xml:space="preserve" width="127mm" height="127mm" version="1.1" style="shape-rendering:geometricPrecision; text-rendering:geometricPrecision; image-rendering:optimizeQuality; fill-rule:evenodd; clip-rule:evenodd"
viewBox="0 0 25550 25550"
 xmlns:xlink="http://www.w3.org/1999/xlink"
 xmlns:xodm="http://www.corel.com/coreldraw/odm/2003">
 <defs>
  <style type="text/css">
   <![CDATA[
    .fil0 {fill:white}
   ]]>
  </style>
 </defs>
 <g id="Layer_x0020_1">
  <metadata id="CorelCorpID_0Corel-Layer"/>
  <path class="fil0" d="M16966.81 11577.35c0,-931.15 815.25,-1042.36 896.89,-2496.46 43.48,-774.37 819.71,-527.42 998.86,-497.2 1118.22,188.63 1677.67,149.22 2795.05,149.22 619.09,0 1332.64,-456.56 1447.18,-948.15 156.88,114.93 175.71,278.39 266.77,481.79 240.59,537.54 438.68,1195.8 581.61,1763.77 754.29,2997.36 263.59,5733.68 -1131.2,8350.32l-365.91 682.04c-352.11,0 -521.18,-62.69 -778.05,-170.1 -880.57,-368.18 -498.61,-436.44 -469.72,-1177.47 52.95,-1358.11 140,-2186.52 -161.15,-3631.02 -124.99,-599.56 -424.85,-984.98 -1104.54,-1091.15l-1028.8 -69.07c-753.99,-5.71 -1443.17,-263.33 -1807.03,-937.58 -44.18,-81.88 -139.96,-314.1 -139.96,-408.96zm-4919.1 -11577.35l1425.93 0c2629.16,0 5653.35,1387.39 7570.45,3008.84 469.6,397.21 1146.09,1062.74 1519.3,1524.75 923.32,1143.09 1717.36,2409.08 2219.43,3818.74 741.31,2081.46 767.18,2872.85 767.18,5121.31 0,2039.78 -866.17,4304.91 -1748.57,5836.59 -420.75,730.33 -1350.85,1932.61 -1954.72,2536.49 -151.45,151.43 -266.89,209.49 -426.52,371.9 -794.12,807.92 -2149.96,1631.28 -3122.07,2117.69 -1105.75,553.27 -3200.31,1213.69 -4824.48,1213.69l-1057.71 0c-992.47,-8.31 -1768.26,-67.96 -2967.1,-416.53 -2366.01,-687.88 -3571,-1461.12 -5342.12,-2941.65l-1120.1 -1175.42c-779.03,-964.44 -1157.6,-1540.2 -1755.69,-2735.52 -564.63,-1128.4 -1230.93,-3150.62 -1230.93,-4807.24l0 -1497.07c0,-868.06 237.23,-1841.33 418.88,-2575.28 471.55,-1905.37 1393.58,-3430.16 2582.26,-4903.09 142.07,-176.07 199.29,-230.69 355.77,-392.77 141.47,-146.46 195.17,-248.76 347.46,-401.07 610.1,-610.08 1798.92,-1531.49 2535.41,-1955.8 323.28,-186.23 626.74,-340.38 979.39,-517.68 602.18,-302.74 1464.86,-634.51 2182.13,-812.01 1330.29,-329.23 1852.25,-404.49 2646.42,-418.88zm-3913.64 12874.81c985.51,0 1065.76,-311.81 2526.87,167.87 1043.71,342.63 1763.41,705.42 2598.9,1393.28 132.86,109.38 313.58,322.45 313.58,534.76 0,1390.28 -1075.43,2352.07 -1804.49,3335.44 -472.84,637.74 -572.24,1149.89 -697.11,1897.8 -99.69,597.07 -346.72,1576.19 -891.74,1703.16 -189.17,-100.07 -211.54,-136.06 -336.74,-311.99 -428.29,-601.81 -750.79,-2785.53 -1080.74,-3610.07 -270.51,-675.99 -622.84,-1130.6 -1138.79,-1555.93 -611.87,-504.4 -784.2,-305.29 -929.62,-1765.12 -91.72,-920.67 -20.82,-1511.25 -712.74,-2281.39 -1033.65,-1150.51 -2340.02,-993.75 -3586.09,-3500.03l-249.55 -449.06c0,-240.47 601.91,-1339.56 738.31,-1557.18 149.42,-238.36 288.43,-475.27 451.55,-696.23 164.57,-222.91 336.29,-473.3 519.61,-678.04 107.79,-120.37 143.74,-187.94 248.78,-300.14 724.71,-774.23 985.06,-1040.65 1820.03,-1673.12 669.55,-507.2 248.4,-37.9 2075.42,152.13 245.14,25.53 676.39,-90.39 886.71,-134.25 2121.27,-442.18 1775.77,222.33 2646.8,589.64 1202.76,507.22 1591.28,50.4 1591.28,903.81 0,349.53 -45.15,631.41 -118.7,929.26 -171.25,693.51 -233.55,444.97 -1339.56,756.34 -271.27,76.37 -555.7,159.6 -786.6,261.35 -805.57,355.02 -1757.74,736.14 -2053.7,1639.06 -41.54,126.7 -61.44,288.23 -125.96,422.96 -303.18,633.26 -1793.67,369.23 -2302.18,841.68 -230.96,214.54 -332.95,390.33 -268.15,743.36 67.13,365.59 841.98,1696.74 1189.54,1957.87 179.31,134.73 531.42,282.78 815.07,282.78zm-299.42 -10479.48c288.9,-251.09 1922.87,-730.27 2235.42,-808.65 3029.43,-759.6 5798.18,-222.91 8443.69,1207.85 938.57,507.6 1344.8,934.37 2103.33,1539.56 315.83,251.98 595.96,616.06 878.74,917.73 82.12,87.61 124.29,156.68 200.46,248.66 407.07,491.67 360.54,807.02 360.54,1485.86 0,496.09 -459.24,499.01 -798.43,499.01 -703.79,0 -1414.22,-25.39 -2104.03,-141.55 -753.54,-126.93 -1294.38,-293.64 -2026.86,451.97 -759.82,773.44 -387.01,1327.45 -666.73,1778.5 -113.61,183.2 -206.35,333.16 -321.47,526.85 -626.4,1054.21 -569.48,2057.5 213.19,2988.77 81.68,97.21 109.7,162.49 201.95,247.15 88.62,81.34 127.59,95.92 223.97,175.25 103.77,85.4 138.09,111.94 257.47,191.67 838.62,560.13 1562.75,475.35 2376.37,517.96 222.73,11.65 182.01,45.33 398.96,50.15 0,205.06 30.46,281.31 65.02,483.9 21.91,128.47 38.71,359.17 63.96,534.9 73.31,510.13 58.95,1648.76 18.25,2172.47 -25.29,325.53 -147.22,684.84 -147.22,1000.53 0,957.12 950.84,1511.29 1746.57,1696.66 -46.67,174.85 -577.89,703.39 -735.32,861.56l-854.66 742.22c-281.23,224.58 -609.36,477.81 -926.18,670.68 -362.75,220.86 -654.92,410.35 -1043.45,603.34 -729.7,362.53 -1484.29,667.04 -2358.75,884.92 -2899.14,722.34 -5947.09,358.02 -8506.02,-1115.29 -795.11,-457.79 -1830.25,-1209.9 -2480.91,-1860.58l-974.2 -1121.71c-119.88,-161.33 -197.68,-263.97 -314.83,-433.71 -206.41,-299 -400.21,-563.89 -569.08,-878.1 -168.41,-313.4 -353.54,-616.12 -492.03,-955.15 -861.16,-2108.32 -1234.81,-3767.9 -959.31,-6135.36 26.98,-231.86 54.5,-469.94 90.53,-658 41.12,-214.54 108.62,-422.86 113.35,-635.19l99.83 0c57.18,245.48 360.82,574.09 519.83,777.61l433.34 464.91c7.1,7.42 17.36,18.05 24.6,25.31 524.88,524.9 1115.31,933.14 1757.16,1336.79 1292.31,812.67 834.84,978.4 1163.17,2878.9 266,1539.88 1188.3,1462.59 1741.71,2300.43 658.04,996.29 686.21,2828.06 1311.98,4077.44 121.61,242.83 374.82,603 570.15,777.22 319.66,285.15 630.9,385.91 1111.16,385.91 1265.19,0 1841.55,-1582.65 2025.05,-2615.84 208.77,-1175.5 236.73,-1194.23 1007.49,-2136.34 887.73,-1085.07 1508.56,-1918.81 1508.56,-3531.61 0,-1153.09 -1568.89,-2150.24 -2530.6,-2559.45 -317.85,-135.23 -549.71,-234.48 -883.81,-363.74 -457.04,-176.8 -1611.4,-470.92 -2124.75,-470.64 -277.85,0.14 -814.16,100.29 -1197.65,100.29 -95,-141.87 -167.48,-273.73 -265.86,-433.61 -145.25,-236.03 -292.92,-310.02 6.48,-369.11 946.03,-186.7 1836.66,-321.06 2155.55,-1542.82 64.9,-248.62 78.2,-332.07 262.2,-486.36 870.17,-729.64 2636.68,-897.37 3179.99,-1211.37 1090.58,-630.28 1091.59,-2781.99 866.15,-3309.01 -544.05,-1271.85 -1793.11,-903.3 -2325.41,-1317.45 -932.68,-725.66 -1561.08,-932.05 -2832.31,-713.07 -485.13,83.55 -704.07,200.76 -1296.31,200.76z"/>
 </g>
</svg>
